<svg width="271" height="33" viewBox="0 0 271 33" fill="none" xmlns="http://www.w3.org/2000/svg">
<mask id="path-1-outside-1_3_9" maskUnits="userSpaceOnUse" x="0.688004" y="0.112" width="271" height="33" fill="black">
<rect fill="white" x="0.688004" y="0.112" width="271" height="33"/>
<path d="M27.768 23.864C28.0453 23.864 28.2587 23.992 28.408 24.248C28.5787 24.504 28.664 24.856 28.664 25.304C28.664 26.136 28.4613 26.7973 28.056 27.288C26.8613 28.7173 25.6987 29.72 24.568 30.296C23.4587 30.872 22.1147 31.16 20.536 31.16C19.4267 31.16 18.4027 31.0213 17.464 30.744C16.5253 30.4667 15.384 30.0507 14.04 29.496C12.824 28.9627 11.6507 28.5253 10.52 28.184C9.432 30.168 7.8 31.16 5.624 31.16C4.42934 31.16 3.48 30.8933 2.776 30.36C2.05067 29.8053 1.688 29.1013 1.688 28.248C1.688 27.2027 2.18934 26.3387 3.192 25.656C4.19467 24.952 5.528 24.6 7.192 24.6H7.608L8.184 15.288C8.312 13.1547 8.696 11.3947 9.336 10.008C9.976 8.62133 10.8613 7.43733 11.992 6.456C12.9733 5.60267 14.0933 4.96267 15.352 4.536C16.6107 4.088 17.944 3.864 19.352 3.864C21.656 3.864 23.4267 4.46133 24.664 5.656C25.9013 6.85066 26.52 8.408 26.52 10.328C26.52 11.6293 26.2853 12.6853 25.816 13.496C25.3467 14.2853 24.696 14.68 23.864 14.68C23.2667 14.68 22.7973 14.5413 22.456 14.264C22.1147 13.9653 21.944 13.5493 21.944 13.016C21.944 12.824 21.9867 12.472 22.072 11.96C22.2 11.3627 22.264 10.8293 22.264 10.36C22.264 9.464 21.9973 8.76 21.464 8.248C20.952 7.71467 20.1627 7.448 19.096 7.448C17.2187 7.448 15.768 8.06667 14.744 9.304C13.72 10.52 13.0693 12.44 12.792 15.064L12.056 22.328C11.9493 23.352 11.8107 24.2373 11.64 24.984C13.0053 25.2187 14.712 25.592 16.76 26.104C17.9547 26.4027 18.872 26.616 19.512 26.744C20.152 26.872 20.7173 26.936 21.208 26.936C22.4453 26.936 23.5013 26.7333 24.376 26.328C25.272 25.9013 26.1147 25.2293 26.904 24.312C27.16 24.0133 27.448 23.864 27.768 23.864Z"/>
<path d="M42.9018 23.864C43.1791 23.864 43.3924 23.992 43.5418 24.248C43.7124 24.504 43.7978 24.856 43.7978 25.304C43.7978 26.1573 43.5951 26.8187 43.1898 27.288C42.4004 28.248 41.2804 29.1333 39.8298 29.944C38.4004 30.7547 36.8644 31.16 35.2218 31.16C32.9818 31.16 31.2431 30.552 30.0058 29.336C28.7684 28.12 28.1498 26.456 28.1498 24.344C28.1498 22.872 28.4591 21.5067 29.0778 20.248C29.6964 18.968 30.5498 17.9547 31.6378 17.208C32.7471 16.4613 33.9951 16.088 35.3818 16.088C36.6191 16.088 37.6111 16.4613 38.3578 17.208C39.1044 17.9333 39.4778 18.9253 39.4778 20.184C39.4778 21.656 38.9444 22.9253 37.8778 23.992C36.8324 25.0373 35.0511 25.8693 32.5338 26.488C33.0671 27.4693 34.0804 27.96 35.5738 27.96C36.5338 27.96 37.6218 27.6293 38.8378 26.968C40.0751 26.2853 41.1418 25.4 42.0378 24.312C42.2938 24.0133 42.5818 23.864 42.9018 23.864ZM34.8378 19.224C34.0484 19.224 33.3764 19.6827 32.8218 20.6C32.2884 21.5173 32.0218 22.6267 32.0218 23.928V23.992C33.2804 23.6933 34.2724 23.2453 34.9978 22.648C35.7231 22.0507 36.0858 21.3573 36.0858 20.568C36.0858 20.1627 35.9684 19.8427 35.7338 19.608C35.5204 19.352 35.2218 19.224 34.8378 19.224Z"/>
<path d="M46.4723 19.128C46.4296 20.1947 46.4083 21.0267 46.4083 21.624C46.4083 23.16 46.4829 24.3653 46.6323 25.24C46.8029 26.0933 47.0696 26.712 47.4323 27.096C47.8163 27.4587 48.3389 27.64 49.0003 27.64C49.3416 27.64 49.7469 27.5333 50.2163 27.32C50.6856 27.1067 51.1123 26.8293 51.4963 26.488C51.7309 26.2747 51.9656 26.168 52.2003 26.168C52.4563 26.168 52.6589 26.3173 52.8083 26.616C52.9789 26.8933 53.0643 27.2347 53.0643 27.64C53.0643 28.0453 52.9789 28.44 52.8083 28.824C52.6589 29.208 52.4243 29.528 52.1043 29.784C50.9949 30.7013 49.7363 31.16 48.3283 31.16C46.3016 31.16 44.8189 30.3173 43.8803 28.632C42.9416 26.9253 42.4723 24.7067 42.4723 21.976C42.4723 21.0373 42.5043 20.088 42.5683 19.128H41.3203C40.6803 19.128 40.2429 19.0107 40.0083 18.776C39.7949 18.5413 39.6883 18.168 39.6883 17.656C39.6883 16.4613 40.1683 15.864 41.1283 15.864H42.9523C43.3149 13.5173 43.8696 11.3733 44.6163 9.432C45.3629 7.49067 46.2589 5.944 47.3043 4.792C48.3709 3.64 49.5123 3.064 50.7283 3.064C51.6243 3.064 52.3283 3.45867 52.8403 4.248C53.3523 5.03733 53.6083 6.02933 53.6083 7.224C53.6083 10.5307 52.2216 13.4107 49.4483 15.864H53.0323C53.3736 15.864 53.6189 15.9387 53.7683 16.088C53.9176 16.2373 53.9923 16.5147 53.9923 16.92C53.9923 18.392 52.7869 19.128 50.3763 19.128H46.4723ZM49.8643 6.136C49.5443 6.136 49.1816 6.54133 48.7763 7.352C48.3923 8.14133 48.0189 9.25067 47.6563 10.68C47.3149 12.088 47.0269 13.656 46.7923 15.384C48.0509 14.296 48.9896 13.08 49.6083 11.736C50.2483 10.3707 50.5683 9.13333 50.5683 8.024C50.5683 6.76533 50.3336 6.136 49.8643 6.136Z"/>
<path d="M58.652 11.96C58.1827 11.96 57.8093 11.8533 57.532 11.64C57.2547 11.4267 57.116 11.0853 57.116 10.616C57.116 10.424 57.148 10.2 57.212 9.944C57.4467 8.96266 57.6173 8.056 57.724 7.224C57.852 6.392 57.916 5.464 57.916 4.44C57.916 3.37333 58.1613 2.552 58.652 1.976C59.164 1.4 59.8147 1.112 60.604 1.112C61.372 1.112 61.948 1.32533 62.332 1.752C62.7373 2.15733 62.94 2.712 62.94 3.416C62.94 4.16267 62.716 5.15467 62.268 6.392C61.82 7.62933 61.276 8.83467 60.636 10.008C60.2093 10.7973 59.868 11.32 59.612 11.576C59.3773 11.832 59.0573 11.96 58.652 11.96Z"/>
<path d="M68.5505 31.864C67.4412 31.864 66.5878 31.608 65.9905 31.096C65.4145 30.584 65.1265 30.008 65.1265 29.368C65.1265 28.8133 65.3292 28.3333 65.7345 27.928C66.1398 27.5227 66.7372 27.32 67.5265 27.32C67.8038 27.32 68.1238 27.352 68.4865 27.416C68.8705 27.4587 69.1585 27.4907 69.3505 27.512C69.3292 26.9573 69.2012 26.4347 68.9665 25.944C68.7532 25.4533 68.4758 24.984 68.1345 24.536C67.7932 24.0667 67.4732 23.6613 67.1745 23.32C66.5132 24.5787 65.8518 25.624 65.1905 26.456C64.5505 27.288 63.8465 28.0773 63.0785 28.824C62.6945 29.208 62.2892 29.4 61.8625 29.4C61.5212 29.4 61.2438 29.2827 61.0305 29.048C60.8172 28.792 60.7105 28.4827 60.7105 28.12C60.7105 27.6933 60.8598 27.2987 61.1585 26.936L61.5745 26.424C62.7478 24.9733 63.6332 23.7787 64.2305 22.84C64.6145 22.2213 64.9985 21.4853 65.3825 20.632C65.7878 19.7787 66.3105 18.616 66.9505 17.144C67.3558 16.2053 68.1985 15.736 69.4785 15.736C70.0758 15.736 70.4918 15.7893 70.7265 15.896C70.9612 16.0027 71.0785 16.1733 71.0785 16.408C71.0785 16.536 71.0358 16.7387 70.9505 17.016C70.8652 17.2933 70.7478 17.5707 70.5985 17.848C70.2145 18.616 70.0225 19.2667 70.0225 19.8C70.0225 20.12 70.1292 20.472 70.3425 20.856C70.5772 21.24 70.9292 21.72 71.3985 22.296C72.0812 23.192 72.5932 23.96 72.9345 24.6C73.2972 25.2187 73.4785 25.9013 73.4785 26.648C73.4785 27.544 73.2652 28.3973 72.8385 29.208C72.4332 29.9973 71.8572 30.6373 71.1105 31.128C70.3638 31.6187 69.5105 31.864 68.5505 31.864Z"/>
<path d="M96.621 31.16C94.0823 31.16 91.8743 30.7013 89.997 29.784C88.1197 28.8453 86.6797 27.5227 85.677 25.816C84.6743 24.1093 84.173 22.1253 84.173 19.864C84.173 16.728 84.7597 13.944 85.933 11.512C87.1277 9.08 88.7383 7.20267 90.765 5.88C92.7917 4.536 95.0423 3.864 97.517 3.864C99.821 3.864 101.57 4.46133 102.765 5.656C103.96 6.82933 104.557 8.38667 104.557 10.328C104.557 11.6293 104.322 12.6747 103.853 13.464C103.405 14.2533 102.754 14.648 101.901 14.648C101.304 14.648 100.834 14.5093 100.493 14.232C100.152 13.9547 99.981 13.5493 99.981 13.016C99.981 12.824 100.024 12.472 100.109 11.96C100.237 11.32 100.301 10.808 100.301 10.424C100.301 8.48267 99.2663 7.512 97.197 7.512C95.789 7.512 94.445 7.97067 93.165 8.888C91.885 9.80533 90.8503 11.16 90.061 12.952C89.2717 14.7227 88.877 16.8347 88.877 19.288C88.877 21.848 89.5917 23.832 91.021 25.24C92.4503 26.6267 94.5623 27.32 97.357 27.32C98.7437 27.32 100.141 27.1493 101.549 26.808C102.978 26.4453 104.557 25.9013 106.285 25.176C106.605 25.048 106.872 24.984 107.085 24.984C107.426 24.984 107.682 25.112 107.853 25.368C108.024 25.624 108.109 25.9547 108.109 26.36C108.109 27.6613 107.405 28.6213 105.997 29.24C104.482 29.9013 102.904 30.392 101.261 30.712C99.6397 31.0107 98.093 31.16 96.621 31.16Z"/>
<path d="M121.606 21.176C121.883 21.176 122.097 21.3147 122.246 21.592C122.395 21.8693 122.47 22.2213 122.47 22.648C122.47 23.672 122.161 24.28 121.542 24.472C120.262 24.92 118.854 25.176 117.318 25.24C116.913 27.032 116.113 28.472 114.918 29.56C113.723 30.6267 112.369 31.16 110.854 31.16C109.574 31.16 108.475 30.8507 107.558 30.232C106.662 29.6133 105.979 28.792 105.51 27.768C105.041 26.744 104.806 25.6347 104.806 24.44C104.806 22.8187 105.115 21.3787 105.734 20.12C106.353 18.84 107.206 17.848 108.294 17.144C109.382 16.4187 110.587 16.056 111.91 16.056C113.531 16.056 114.833 16.6213 115.814 17.752C116.817 18.8613 117.403 20.2373 117.574 21.88C118.577 21.816 119.771 21.6027 121.158 21.24C121.329 21.1973 121.478 21.176 121.606 21.176ZM111.11 27.768C111.793 27.768 112.379 27.4907 112.87 26.936C113.382 26.3813 113.723 25.5813 113.894 24.536C113.233 24.088 112.721 23.5013 112.358 22.776C112.017 22.0507 111.846 21.2827 111.846 20.472C111.846 20.1307 111.878 19.7893 111.942 19.448H111.782C110.929 19.448 110.214 19.864 109.638 20.696C109.083 21.5067 108.806 22.6587 108.806 24.152C108.806 25.3253 109.03 26.2213 109.478 26.84C109.947 27.4587 110.491 27.768 111.11 27.768Z"/>
<path d="M121.995 31.16C121.185 31.16 120.609 30.7333 120.268 29.88C119.948 29.0267 119.787 27.6613 119.787 25.784C119.787 23.0107 120.182 20.376 120.971 17.88C121.163 17.2613 121.473 16.8133 121.899 16.536C122.347 16.2373 122.966 16.088 123.756 16.088C124.182 16.088 124.481 16.1413 124.651 16.248C124.822 16.3547 124.908 16.5573 124.908 16.856C124.908 17.1973 124.747 17.9653 124.427 19.16C124.214 20.0133 124.043 20.76 123.915 21.4C123.787 22.0187 123.681 22.7973 123.595 23.736C124.171 22.072 124.854 20.664 125.644 19.512C126.454 18.36 127.275 17.5067 128.107 16.952C128.961 16.376 129.761 16.088 130.508 16.088C131.254 16.088 131.777 16.2587 132.076 16.6C132.396 16.9413 132.555 17.464 132.555 18.168C132.555 18.8507 132.353 20.088 131.947 21.88C131.777 22.648 131.66 23.224 131.596 23.608C132.662 20.984 133.846 19.0747 135.148 17.88C136.449 16.6853 137.665 16.088 138.796 16.088C140.182 16.088 140.876 16.7813 140.876 18.168C140.876 19 140.641 20.504 140.172 22.68C139.766 24.536 139.564 25.7627 139.564 26.36C139.564 27.2133 139.873 27.64 140.492 27.64C140.918 27.64 141.419 27.384 141.995 26.872C142.593 26.3387 143.382 25.4853 144.363 24.312C144.619 24.0133 144.908 23.864 145.228 23.864C145.505 23.864 145.718 23.992 145.868 24.248C146.038 24.504 146.124 24.856 146.124 25.304C146.124 26.1573 145.921 26.8187 145.516 27.288C144.598 28.4187 143.606 29.3467 142.54 30.072C141.494 30.7973 140.3 31.16 138.956 31.16C137.868 31.16 137.046 30.8507 136.492 30.232C135.937 29.592 135.66 28.6747 135.66 27.48C135.66 26.8827 135.809 25.816 136.107 24.28C136.385 22.936 136.523 22.008 136.523 21.496C136.523 21.1547 136.406 20.984 136.172 20.984C135.894 20.984 135.5 21.3467 134.988 22.072C134.476 22.776 133.964 23.7147 133.452 24.888C132.94 26.0613 132.524 27.2987 132.204 28.6C131.969 29.624 131.692 30.3067 131.372 30.648C131.073 30.9893 130.582 31.16 129.9 31.16C129.196 31.16 128.662 30.8293 128.299 30.168C127.958 29.4853 127.787 28.664 127.787 27.704C127.787 26.8933 127.894 25.72 128.107 24.184C128.278 22.8187 128.364 21.9227 128.364 21.496C128.364 21.1547 128.246 20.984 128.011 20.984C127.691 20.984 127.286 21.368 126.796 22.136C126.305 22.904 125.825 23.8853 125.355 25.08C124.907 26.2747 124.545 27.448 124.268 28.6C124.033 29.6027 123.756 30.2853 123.436 30.648C123.137 30.9893 122.657 31.16 121.995 31.16Z"/>
<path d="M145.808 31.16C144.997 31.16 144.421 30.7333 144.08 29.88C143.76 29.0267 143.6 27.6613 143.6 25.784C143.6 23.0107 143.995 20.376 144.784 17.88C144.976 17.2613 145.285 16.8133 145.712 16.536C146.16 16.2373 146.779 16.088 147.568 16.088C147.995 16.088 148.293 16.1413 148.464 16.248C148.635 16.3547 148.72 16.5573 148.72 16.856C148.72 17.1973 148.56 17.9653 148.24 19.16C148.027 20.0133 147.856 20.76 147.728 21.4C147.6 22.0187 147.493 22.7973 147.408 23.736C147.984 22.072 148.667 20.664 149.456 19.512C150.267 18.36 151.088 17.5067 151.92 16.952C152.773 16.376 153.573 16.088 154.32 16.088C155.067 16.088 155.589 16.2587 155.888 16.6C156.208 16.9413 156.368 17.464 156.368 18.168C156.368 18.8507 156.165 20.088 155.76 21.88C155.589 22.648 155.472 23.224 155.408 23.608C156.475 20.984 157.659 19.0747 158.96 17.88C160.261 16.6853 161.477 16.088 162.608 16.088C163.995 16.088 164.688 16.7813 164.688 18.168C164.688 19 164.453 20.504 163.984 22.68C163.579 24.536 163.376 25.7627 163.376 26.36C163.376 27.2133 163.685 27.64 164.304 27.64C164.731 27.64 165.232 27.384 165.808 26.872C166.405 26.3387 167.195 25.4853 168.176 24.312C168.432 24.0133 168.72 23.864 169.04 23.864C169.317 23.864 169.531 23.992 169.68 24.248C169.851 24.504 169.936 24.856 169.936 25.304C169.936 26.1573 169.733 26.8187 169.328 27.288C168.411 28.4187 167.419 29.3467 166.352 30.072C165.307 30.7973 164.112 31.16 162.768 31.16C161.68 31.16 160.859 30.8507 160.304 30.232C159.749 29.592 159.472 28.6747 159.472 27.48C159.472 26.8827 159.621 25.816 159.92 24.28C160.197 22.936 160.336 22.008 160.336 21.496C160.336 21.1547 160.219 20.984 159.984 20.984C159.707 20.984 159.312 21.3467 158.8 22.072C158.288 22.776 157.776 23.7147 157.264 24.888C156.752 26.0613 156.336 27.2987 156.016 28.6C155.781 29.624 155.504 30.3067 155.184 30.648C154.885 30.9893 154.395 31.16 153.712 31.16C153.008 31.16 152.475 30.8293 152.112 30.168C151.771 29.4853 151.6 28.664 151.6 27.704C151.6 26.8933 151.707 25.72 151.92 24.184C152.091 22.8187 152.176 21.9227 152.176 21.496C152.176 21.1547 152.059 20.984 151.824 20.984C151.504 20.984 151.099 21.368 150.608 22.136C150.117 22.904 149.637 23.8853 149.168 25.08C148.72 26.2747 148.357 27.448 148.08 28.6C147.845 29.6027 147.568 30.2853 147.248 30.648C146.949 30.9893 146.469 31.16 145.808 31.16Z"/>
<path d="M170.613 31.16C169.653 31.16 168.863 30.7227 168.245 29.848C167.647 28.952 167.348 27.8427 167.348 26.52C167.348 24.92 167.455 23.4587 167.669 22.136C167.882 20.792 168.234 19.3733 168.725 17.88C168.938 17.24 169.236 16.7813 169.62 16.504C170.004 16.2267 170.613 16.088 171.445 16.088C171.914 16.088 172.234 16.1627 172.404 16.312C172.596 16.4613 172.693 16.6853 172.693 16.984C172.693 17.1547 172.575 17.7307 172.34 18.712C172.127 19.5013 171.957 20.216 171.829 20.856C171.402 23.096 171.189 24.5893 171.189 25.336C171.189 25.784 171.242 26.104 171.348 26.296C171.455 26.4667 171.626 26.552 171.861 26.552C172.181 26.552 172.575 26.232 173.044 25.592C173.535 24.952 174.047 23.9813 174.581 22.68C175.135 21.3787 175.668 19.7787 176.18 17.88C176.351 17.24 176.607 16.7813 176.949 16.504C177.311 16.2267 177.845 16.088 178.549 16.088C179.039 16.088 179.38 16.152 179.572 16.28C179.764 16.3867 179.861 16.6 179.861 16.92C179.861 17.4533 179.594 18.9147 179.061 21.304C178.463 24.0347 178.165 25.72 178.165 26.36C178.165 26.7653 178.25 27.0853 178.421 27.32C178.591 27.5333 178.815 27.64 179.092 27.64C179.519 27.64 180.02 27.384 180.596 26.872C181.194 26.3387 181.983 25.4853 182.965 24.312C183.221 24.0133 183.509 23.864 183.829 23.864C184.106 23.864 184.319 23.992 184.469 24.248C184.639 24.504 184.725 24.856 184.725 25.304C184.725 26.1573 184.522 26.8187 184.117 27.288C183.199 28.4187 182.207 29.3467 181.141 30.072C180.095 30.7973 178.901 31.16 177.557 31.16C176.533 31.16 175.775 30.7653 175.285 29.976C174.815 29.1867 174.581 28.0773 174.581 26.648C174.218 28.0987 173.674 29.2187 172.949 30.008C172.223 30.776 171.445 31.16 170.613 31.16Z"/>
<path d="M184.402 31.16C183.591 31.16 183.015 30.7333 182.674 29.88C182.354 29.0267 182.194 27.6613 182.194 25.784C182.194 23.0107 182.588 20.376 183.378 17.88C183.57 17.2613 183.879 16.8133 184.306 16.536C184.754 16.2373 185.372 16.088 186.162 16.088C186.588 16.088 186.887 16.1413 187.058 16.248C187.228 16.3547 187.314 16.5573 187.314 16.856C187.314 17.1973 187.154 17.9653 186.834 19.16C186.62 20.0133 186.45 20.76 186.322 21.4C186.194 22.04 186.087 22.8293 186.002 23.768C186.706 21.9333 187.495 20.44 188.37 19.288C189.244 18.136 190.098 17.3147 190.93 16.824C191.783 16.3333 192.562 16.088 193.266 16.088C194.652 16.088 195.346 16.7813 195.346 18.168C195.346 19 195.111 20.504 194.642 22.68C194.236 24.536 194.034 25.7627 194.034 26.36C194.034 27.2133 194.343 27.64 194.962 27.64C195.388 27.64 195.89 27.384 196.466 26.872C197.063 26.3387 197.852 25.4853 198.834 24.312C199.09 24.0133 199.378 23.864 199.698 23.864C199.975 23.864 200.188 23.992 200.338 24.248C200.508 24.504 200.594 24.856 200.594 25.304C200.594 26.1573 200.391 26.8187 199.986 27.288C199.068 28.4187 198.076 29.3467 197.01 30.072C195.964 30.7973 194.77 31.16 193.426 31.16C192.338 31.16 191.516 30.8507 190.962 30.232C190.407 29.592 190.13 28.6747 190.13 27.48C190.13 26.8827 190.279 25.816 190.578 24.28C190.855 22.936 190.994 22.008 190.994 21.496C190.994 21.1547 190.876 20.984 190.642 20.984C190.364 20.984 189.97 21.3467 189.458 22.072C188.967 22.776 188.455 23.7147 187.922 24.888C187.41 26.0613 186.994 27.2987 186.674 28.6C186.439 29.6027 186.162 30.2853 185.842 30.648C185.543 30.9893 185.063 31.16 184.402 31.16Z"/>
<path d="M202.197 13.976C201.301 13.976 200.629 13.7733 200.181 13.368C199.733 12.9413 199.509 12.3547 199.509 11.608C199.509 10.8613 199.797 10.2427 200.373 9.752C200.97 9.24 201.706 8.984 202.581 8.984C203.37 8.984 204.01 9.176 204.501 9.56C204.991 9.944 205.237 10.488 205.237 11.192C205.237 12.0453 204.959 12.728 204.405 13.24C203.85 13.7307 203.114 13.976 202.197 13.976ZM201.941 31.16C200.554 31.16 199.541 30.6693 198.901 29.688C198.282 28.7067 197.973 27.4053 197.973 25.784C197.973 24.824 198.09 23.5973 198.325 22.104C198.581 20.5893 198.901 19.1813 199.285 17.88C199.477 17.1973 199.733 16.728 200.053 16.472C200.373 16.216 200.885 16.088 201.589 16.088C202.677 16.088 203.221 16.4507 203.221 17.176C203.221 17.7093 203.018 18.9467 202.613 20.888C202.101 23.2347 201.845 24.824 201.845 25.656C201.845 26.296 201.93 26.7867 202.101 27.128C202.271 27.4693 202.559 27.64 202.965 27.64C203.349 27.64 203.829 27.3733 204.405 26.84C204.981 26.3067 205.749 25.464 206.709 24.312C206.965 24.0133 207.253 23.864 207.573 23.864C207.85 23.864 208.063 23.992 208.213 24.248C208.383 24.504 208.469 24.856 208.469 25.304C208.469 26.1573 208.266 26.8187 207.861 27.288C205.749 29.8693 203.775 31.16 201.941 31.16Z"/>
<path d="M211.992 31.16C209.901 31.16 208.269 30.5733 207.096 29.4C205.944 28.2053 205.368 26.6373 205.368 24.696C205.368 22.968 205.709 21.4533 206.392 20.152C207.074 18.8507 207.96 17.848 209.048 17.144C210.136 16.44 211.277 16.088 212.472 16.088C213.645 16.088 214.552 16.44 215.192 17.144C215.853 17.8267 216.184 18.712 216.184 19.8C216.184 20.696 215.981 21.4533 215.576 22.072C215.192 22.6907 214.68 23 214.04 23C213.634 23 213.304 22.904 213.048 22.712C212.813 22.52 212.696 22.2533 212.696 21.912C212.696 21.7627 212.717 21.592 212.76 21.4C212.802 21.208 212.834 21.0693 212.856 20.984C212.962 20.664 213.016 20.3653 213.016 20.088C213.016 19.8107 212.941 19.5973 212.792 19.448C212.664 19.2987 212.472 19.224 212.216 19.224C211.725 19.224 211.266 19.448 210.84 19.896C210.413 20.3227 210.072 20.9093 209.816 21.656C209.56 22.4027 209.432 23.224 209.432 24.12C209.432 26.5947 210.509 27.832 212.664 27.832C213.538 27.832 214.477 27.544 215.48 26.968C216.504 26.3707 217.506 25.4853 218.488 24.312C218.744 24.0133 219.032 23.864 219.352 23.864C219.629 23.864 219.842 23.992 219.992 24.248C220.162 24.504 220.248 24.856 220.248 25.304C220.248 26.1147 220.045 26.776 219.64 27.288C218.637 28.5253 217.432 29.4853 216.024 30.168C214.637 30.8293 213.293 31.16 211.992 31.16Z"/>
<path d="M221.285 31.16C219.962 31.16 218.906 30.68 218.117 29.72C217.327 28.76 216.932 27.5013 216.932 25.944C216.932 24.2373 217.327 22.6267 218.117 21.112C218.906 19.576 219.951 18.3493 221.253 17.432C222.575 16.4933 223.973 16.024 225.445 16.024C225.914 16.024 226.223 16.12 226.372 16.312C226.543 16.4827 226.682 16.8027 226.788 17.272C227.236 17.1867 227.706 17.144 228.197 17.144C229.242 17.144 229.764 17.5173 229.764 18.264C229.764 18.712 229.604 19.7787 229.285 21.464C228.794 23.9173 228.549 25.624 228.549 26.584C228.549 26.904 228.623 27.16 228.773 27.352C228.943 27.544 229.157 27.64 229.413 27.64C229.818 27.64 230.309 27.384 230.885 26.872C231.461 26.3387 232.239 25.4853 233.221 24.312C233.477 24.0133 233.765 23.864 234.085 23.864C234.362 23.864 234.575 23.992 234.725 24.248C234.895 24.504 234.98 24.856 234.98 25.304C234.98 26.1573 234.778 26.8187 234.372 27.288C233.498 28.376 232.57 29.2933 231.589 30.04C230.607 30.7867 229.658 31.16 228.74 31.16C228.036 31.16 227.386 30.9253 226.788 30.456C226.212 29.9653 225.775 29.304 225.477 28.472C224.367 30.264 222.97 31.16 221.285 31.16ZM222.436 27.928C222.906 27.928 223.354 27.6507 223.781 27.096C224.207 26.5413 224.516 25.8053 224.708 24.888L225.893 19C224.997 19.0213 224.164 19.3627 223.396 20.024C222.65 20.664 222.053 21.5173 221.605 22.584C221.157 23.6507 220.932 24.7813 220.932 25.976C220.932 26.6373 221.06 27.128 221.316 27.448C221.594 27.768 221.967 27.928 222.436 27.928Z"/>
<path d="M246.652 23.864C246.929 23.864 247.142 23.992 247.292 24.248C247.462 24.504 247.548 24.856 247.548 25.304C247.548 26.1573 247.345 26.8187 246.94 27.288C246.022 28.4187 245.02 29.3467 243.932 30.072C242.844 30.7973 241.596 31.16 240.188 31.16C235.836 31.16 233.66 28.0987 233.66 21.976C233.66 21.0373 233.692 20.088 233.756 19.128H232.508C231.868 19.128 231.43 19.0107 231.196 18.776C230.982 18.5413 230.876 18.168 230.876 17.656C230.876 16.4613 231.356 15.864 232.316 15.864H234.14C234.502 13.5173 235.057 11.3733 235.804 9.432C236.55 7.49067 237.446 5.944 238.492 4.792C239.558 3.64 240.7 3.064 241.916 3.064C242.812 3.064 243.516 3.45867 244.028 4.248C244.54 5.03733 244.796 6.02933 244.796 7.224C244.796 10.5307 243.409 13.4107 240.636 15.864H244.22C244.561 15.864 244.806 15.9387 244.956 16.088C245.105 16.2373 245.18 16.5147 245.18 16.92C245.18 18.392 243.974 19.128 241.564 19.128H237.66C237.617 20.1947 237.596 21.0267 237.596 21.624C237.596 23.8427 237.852 25.4 238.364 26.296C238.897 27.192 239.729 27.64 240.86 27.64C241.777 27.64 242.588 27.3627 243.292 26.808C243.996 26.2533 244.828 25.4213 245.788 24.312C246.044 24.0133 246.332 23.864 246.652 23.864ZM241.052 6.136C240.732 6.136 240.369 6.54133 239.964 7.352C239.58 8.14133 239.206 9.25067 238.844 10.68C238.502 12.088 238.214 13.656 237.98 15.384C239.238 14.296 240.177 13.08 240.796 11.736C241.436 10.3707 241.756 9.13333 241.756 8.024C241.756 6.76533 241.521 6.136 241.052 6.136Z"/>
<path d="M256.398 24.824C256.676 24.824 256.889 24.952 257.038 25.208C257.209 25.464 257.294 25.816 257.294 26.264C257.294 27.032 257.113 27.6933 256.75 28.248C256.153 29.1653 255.364 29.88 254.382 30.392C253.422 30.904 252.27 31.16 250.926 31.16C248.878 31.16 247.289 30.552 246.158 29.336C245.028 28.0987 244.462 26.4347 244.462 24.344C244.462 22.872 244.772 21.5067 245.39 20.248C246.009 18.968 246.862 17.9547 247.95 17.208C249.06 16.4613 250.308 16.088 251.694 16.088C252.932 16.088 253.924 16.4613 254.67 17.208C255.417 17.9333 255.79 18.9253 255.79 20.184C255.79 21.656 255.257 22.9253 254.19 23.992C253.145 25.0373 251.353 25.8693 248.814 26.488C249.326 27.4693 250.19 27.96 251.406 27.96C252.281 27.96 252.996 27.7573 253.55 27.352C254.126 26.9467 254.788 26.264 255.534 25.304C255.79 24.984 256.078 24.824 256.398 24.824ZM251.15 19.224C250.361 19.224 249.689 19.6827 249.134 20.6C248.601 21.5173 248.334 22.6267 248.334 23.928V23.992C249.593 23.6933 250.585 23.2453 251.31 22.648C252.036 22.0507 252.398 21.3573 252.398 20.568C252.398 20.1627 252.281 19.8427 252.046 19.608C251.833 19.352 251.534 19.224 251.15 19.224Z"/>
<path d="M263.12 23.512C262.693 23.512 262.341 23.416 262.064 23.224C261.787 23.032 261.648 22.7333 261.648 22.328L261.68 22.072C262.043 19.6827 262.533 16.9627 263.152 13.912C263.771 10.8613 264.347 8.22667 264.88 6.008C265.221 4.64267 266.149 3.96 267.664 3.96C269.029 3.96 269.712 4.39733 269.712 5.272C269.712 5.464 269.68 5.67733 269.616 5.912C269.061 8.17333 268.325 10.9147 267.408 14.136C266.491 17.336 265.616 20.12 264.784 22.488C264.549 23.1707 263.995 23.512 263.12 23.512ZM261.904 31.16C260.965 31.16 260.251 30.904 259.76 30.392C259.291 29.88 259.056 29.208 259.056 28.376C259.056 27.416 259.323 26.648 259.856 26.072C260.411 25.496 261.179 25.208 262.16 25.208C263.099 25.208 263.803 25.4427 264.272 25.912C264.763 26.36 265.008 27.032 265.008 27.928C265.008 28.9093 264.731 29.6987 264.176 30.296C263.621 30.872 262.864 31.16 261.904 31.16Z"/>
</mask>
<path d="M27.768 23.864C28.0453 23.864 28.2587 23.992 28.408 24.248C28.5787 24.504 28.664 24.856 28.664 25.304C28.664 26.136 28.4613 26.7973 28.056 27.288C26.8613 28.7173 25.6987 29.72 24.568 30.296C23.4587 30.872 22.1147 31.16 20.536 31.16C19.4267 31.16 18.4027 31.0213 17.464 30.744C16.5253 30.4667 15.384 30.0507 14.04 29.496C12.824 28.9627 11.6507 28.5253 10.52 28.184C9.432 30.168 7.8 31.16 5.624 31.16C4.42934 31.16 3.48 30.8933 2.776 30.36C2.05067 29.8053 1.688 29.1013 1.688 28.248C1.688 27.2027 2.18934 26.3387 3.192 25.656C4.19467 24.952 5.528 24.6 7.192 24.6H7.608L8.184 15.288C8.312 13.1547 8.696 11.3947 9.336 10.008C9.976 8.62133 10.8613 7.43733 11.992 6.456C12.9733 5.60267 14.0933 4.96267 15.352 4.536C16.6107 4.088 17.944 3.864 19.352 3.864C21.656 3.864 23.4267 4.46133 24.664 5.656C25.9013 6.85066 26.52 8.408 26.52 10.328C26.52 11.6293 26.2853 12.6853 25.816 13.496C25.3467 14.2853 24.696 14.68 23.864 14.68C23.2667 14.68 22.7973 14.5413 22.456 14.264C22.1147 13.9653 21.944 13.5493 21.944 13.016C21.944 12.824 21.9867 12.472 22.072 11.96C22.2 11.3627 22.264 10.8293 22.264 10.36C22.264 9.464 21.9973 8.76 21.464 8.248C20.952 7.71467 20.1627 7.448 19.096 7.448C17.2187 7.448 15.768 8.06667 14.744 9.304C13.72 10.52 13.0693 12.44 12.792 15.064L12.056 22.328C11.9493 23.352 11.8107 24.2373 11.64 24.984C13.0053 25.2187 14.712 25.592 16.76 26.104C17.9547 26.4027 18.872 26.616 19.512 26.744C20.152 26.872 20.7173 26.936 21.208 26.936C22.4453 26.936 23.5013 26.7333 24.376 26.328C25.272 25.9013 26.1147 25.2293 26.904 24.312C27.16 24.0133 27.448 23.864 27.768 23.864Z" stroke="white" stroke-width="2" mask="url(#path-1-outside-1_3_9)"/>
<path d="M42.9018 23.864C43.1791 23.864 43.3924 23.992 43.5418 24.248C43.7124 24.504 43.7978 24.856 43.7978 25.304C43.7978 26.1573 43.5951 26.8187 43.1898 27.288C42.4004 28.248 41.2804 29.1333 39.8298 29.944C38.4004 30.7547 36.8644 31.16 35.2218 31.16C32.9818 31.16 31.2431 30.552 30.0058 29.336C28.7684 28.12 28.1498 26.456 28.1498 24.344C28.1498 22.872 28.4591 21.5067 29.0778 20.248C29.6964 18.968 30.5498 17.9547 31.6378 17.208C32.7471 16.4613 33.9951 16.088 35.3818 16.088C36.6191 16.088 37.6111 16.4613 38.3578 17.208C39.1044 17.9333 39.4778 18.9253 39.4778 20.184C39.4778 21.656 38.9444 22.9253 37.8778 23.992C36.8324 25.0373 35.0511 25.8693 32.5338 26.488C33.0671 27.4693 34.0804 27.96 35.5738 27.96C36.5338 27.96 37.6218 27.6293 38.8378 26.968C40.0751 26.2853 41.1418 25.4 42.0378 24.312C42.2938 24.0133 42.5818 23.864 42.9018 23.864ZM34.8378 19.224C34.0484 19.224 33.3764 19.6827 32.8218 20.6C32.2884 21.5173 32.0218 22.6267 32.0218 23.928V23.992C33.2804 23.6933 34.2724 23.2453 34.9978 22.648C35.7231 22.0507 36.0858 21.3573 36.0858 20.568C36.0858 20.1627 35.9684 19.8427 35.7338 19.608C35.5204 19.352 35.2218 19.224 34.8378 19.224Z" stroke="white" stroke-width="2" mask="url(#path-1-outside-1_3_9)"/>
<path d="M46.4723 19.128C46.4296 20.1947 46.4083 21.0267 46.4083 21.624C46.4083 23.16 46.4829 24.3653 46.6323 25.24C46.8029 26.0933 47.0696 26.712 47.4323 27.096C47.8163 27.4587 48.3389 27.64 49.0003 27.64C49.3416 27.64 49.7469 27.5333 50.2163 27.32C50.6856 27.1067 51.1123 26.8293 51.4963 26.488C51.7309 26.2747 51.9656 26.168 52.2003 26.168C52.4563 26.168 52.6589 26.3173 52.8083 26.616C52.9789 26.8933 53.0643 27.2347 53.0643 27.64C53.0643 28.0453 52.9789 28.44 52.8083 28.824C52.6589 29.208 52.4243 29.528 52.1043 29.784C50.9949 30.7013 49.7363 31.16 48.3283 31.16C46.3016 31.16 44.8189 30.3173 43.8803 28.632C42.9416 26.9253 42.4723 24.7067 42.4723 21.976C42.4723 21.0373 42.5043 20.088 42.5683 19.128H41.3203C40.6803 19.128 40.2429 19.0107 40.0083 18.776C39.7949 18.5413 39.6883 18.168 39.6883 17.656C39.6883 16.4613 40.1683 15.864 41.1283 15.864H42.9523C43.3149 13.5173 43.8696 11.3733 44.6163 9.432C45.3629 7.49067 46.2589 5.944 47.3043 4.792C48.3709 3.64 49.5123 3.064 50.7283 3.064C51.6243 3.064 52.3283 3.45867 52.8403 4.248C53.3523 5.03733 53.6083 6.02933 53.6083 7.224C53.6083 10.5307 52.2216 13.4107 49.4483 15.864H53.0323C53.3736 15.864 53.6189 15.9387 53.7683 16.088C53.9176 16.2373 53.9923 16.5147 53.9923 16.92C53.9923 18.392 52.7869 19.128 50.3763 19.128H46.4723ZM49.8643 6.136C49.5443 6.136 49.1816 6.54133 48.7763 7.352C48.3923 8.14133 48.0189 9.25067 47.6563 10.68C47.3149 12.088 47.0269 13.656 46.7923 15.384C48.0509 14.296 48.9896 13.08 49.6083 11.736C50.2483 10.3707 50.5683 9.13333 50.5683 8.024C50.5683 6.76533 50.3336 6.136 49.8643 6.136Z" stroke="white" stroke-width="2" mask="url(#path-1-outside-1_3_9)"/>
<path d="M58.652 11.96C58.1827 11.96 57.8093 11.8533 57.532 11.64C57.2547 11.4267 57.116 11.0853 57.116 10.616C57.116 10.424 57.148 10.2 57.212 9.944C57.4467 8.96266 57.6173 8.056 57.724 7.224C57.852 6.392 57.916 5.464 57.916 4.44C57.916 3.37333 58.1613 2.552 58.652 1.976C59.164 1.4 59.8147 1.112 60.604 1.112C61.372 1.112 61.948 1.32533 62.332 1.752C62.7373 2.15733 62.94 2.712 62.94 3.416C62.94 4.16267 62.716 5.15467 62.268 6.392C61.82 7.62933 61.276 8.83467 60.636 10.008C60.2093 10.7973 59.868 11.32 59.612 11.576C59.3773 11.832 59.0573 11.96 58.652 11.96Z" stroke="white" stroke-width="2" mask="url(#path-1-outside-1_3_9)"/>
<path d="M68.5505 31.864C67.4412 31.864 66.5878 31.608 65.9905 31.096C65.4145 30.584 65.1265 30.008 65.1265 29.368C65.1265 28.8133 65.3292 28.3333 65.7345 27.928C66.1398 27.5227 66.7372 27.32 67.5265 27.32C67.8038 27.32 68.1238 27.352 68.4865 27.416C68.8705 27.4587 69.1585 27.4907 69.3505 27.512C69.3292 26.9573 69.2012 26.4347 68.9665 25.944C68.7532 25.4533 68.4758 24.984 68.1345 24.536C67.7932 24.0667 67.4732 23.6613 67.1745 23.32C66.5132 24.5787 65.8518 25.624 65.1905 26.456C64.5505 27.288 63.8465 28.0773 63.0785 28.824C62.6945 29.208 62.2892 29.4 61.8625 29.4C61.5212 29.4 61.2438 29.2827 61.0305 29.048C60.8172 28.792 60.7105 28.4827 60.7105 28.12C60.7105 27.6933 60.8598 27.2987 61.1585 26.936L61.5745 26.424C62.7478 24.9733 63.6332 23.7787 64.2305 22.84C64.6145 22.2213 64.9985 21.4853 65.3825 20.632C65.7878 19.7787 66.3105 18.616 66.9505 17.144C67.3558 16.2053 68.1985 15.736 69.4785 15.736C70.0758 15.736 70.4918 15.7893 70.7265 15.896C70.9612 16.0027 71.0785 16.1733 71.0785 16.408C71.0785 16.536 71.0358 16.7387 70.9505 17.016C70.8652 17.2933 70.7478 17.5707 70.5985 17.848C70.2145 18.616 70.0225 19.2667 70.0225 19.8C70.0225 20.12 70.1292 20.472 70.3425 20.856C70.5772 21.24 70.9292 21.72 71.3985 22.296C72.0812 23.192 72.5932 23.96 72.9345 24.6C73.2972 25.2187 73.4785 25.9013 73.4785 26.648C73.4785 27.544 73.2652 28.3973 72.8385 29.208C72.4332 29.9973 71.8572 30.6373 71.1105 31.128C70.3638 31.6187 69.5105 31.864 68.5505 31.864Z" stroke="white" stroke-width="2" mask="url(#path-1-outside-1_3_9)"/>
<path d="M96.621 31.16C94.0823 31.16 91.8743 30.7013 89.997 29.784C88.1197 28.8453 86.6797 27.5227 85.677 25.816C84.6743 24.1093 84.173 22.1253 84.173 19.864C84.173 16.728 84.7597 13.944 85.933 11.512C87.1277 9.08 88.7383 7.20267 90.765 5.88C92.7917 4.536 95.0423 3.864 97.517 3.864C99.821 3.864 101.57 4.46133 102.765 5.656C103.96 6.82933 104.557 8.38667 104.557 10.328C104.557 11.6293 104.322 12.6747 103.853 13.464C103.405 14.2533 102.754 14.648 101.901 14.648C101.304 14.648 100.834 14.5093 100.493 14.232C100.152 13.9547 99.981 13.5493 99.981 13.016C99.981 12.824 100.024 12.472 100.109 11.96C100.237 11.32 100.301 10.808 100.301 10.424C100.301 8.48267 99.2663 7.512 97.197 7.512C95.789 7.512 94.445 7.97067 93.165 8.888C91.885 9.80533 90.8503 11.16 90.061 12.952C89.2717 14.7227 88.877 16.8347 88.877 19.288C88.877 21.848 89.5917 23.832 91.021 25.24C92.4503 26.6267 94.5623 27.32 97.357 27.32C98.7437 27.32 100.141 27.1493 101.549 26.808C102.978 26.4453 104.557 25.9013 106.285 25.176C106.605 25.048 106.872 24.984 107.085 24.984C107.426 24.984 107.682 25.112 107.853 25.368C108.024 25.624 108.109 25.9547 108.109 26.36C108.109 27.6613 107.405 28.6213 105.997 29.24C104.482 29.9013 102.904 30.392 101.261 30.712C99.6397 31.0107 98.093 31.16 96.621 31.16Z" stroke="white" stroke-width="2" mask="url(#path-1-outside-1_3_9)"/>
<path d="M121.606 21.176C121.883 21.176 122.097 21.3147 122.246 21.592C122.395 21.8693 122.47 22.2213 122.47 22.648C122.47 23.672 122.161 24.28 121.542 24.472C120.262 24.92 118.854 25.176 117.318 25.24C116.913 27.032 116.113 28.472 114.918 29.56C113.723 30.6267 112.369 31.16 110.854 31.16C109.574 31.16 108.475 30.8507 107.558 30.232C106.662 29.6133 105.979 28.792 105.51 27.768C105.041 26.744 104.806 25.6347 104.806 24.44C104.806 22.8187 105.115 21.3787 105.734 20.12C106.353 18.84 107.206 17.848 108.294 17.144C109.382 16.4187 110.587 16.056 111.91 16.056C113.531 16.056 114.833 16.6213 115.814 17.752C116.817 18.8613 117.403 20.2373 117.574 21.88C118.577 21.816 119.771 21.6027 121.158 21.24C121.329 21.1973 121.478 21.176 121.606 21.176ZM111.11 27.768C111.793 27.768 112.379 27.4907 112.87 26.936C113.382 26.3813 113.723 25.5813 113.894 24.536C113.233 24.088 112.721 23.5013 112.358 22.776C112.017 22.0507 111.846 21.2827 111.846 20.472C111.846 20.1307 111.878 19.7893 111.942 19.448H111.782C110.929 19.448 110.214 19.864 109.638 20.696C109.083 21.5067 108.806 22.6587 108.806 24.152C108.806 25.3253 109.03 26.2213 109.478 26.84C109.947 27.4587 110.491 27.768 111.11 27.768Z" stroke="white" stroke-width="2" mask="url(#path-1-outside-1_3_9)"/>
<path d="M121.995 31.16C121.185 31.16 120.609 30.7333 120.268 29.88C119.948 29.0267 119.787 27.6613 119.787 25.784C119.787 23.0107 120.182 20.376 120.971 17.88C121.163 17.2613 121.473 16.8133 121.899 16.536C122.347 16.2373 122.966 16.088 123.756 16.088C124.182 16.088 124.481 16.1413 124.651 16.248C124.822 16.3547 124.908 16.5573 124.908 16.856C124.908 17.1973 124.747 17.9653 124.427 19.16C124.214 20.0133 124.043 20.76 123.915 21.4C123.787 22.0187 123.681 22.7973 123.595 23.736C124.171 22.072 124.854 20.664 125.644 19.512C126.454 18.36 127.275 17.5067 128.107 16.952C128.961 16.376 129.761 16.088 130.508 16.088C131.254 16.088 131.777 16.2587 132.076 16.6C132.396 16.9413 132.555 17.464 132.555 18.168C132.555 18.8507 132.353 20.088 131.947 21.88C131.777 22.648 131.66 23.224 131.596 23.608C132.662 20.984 133.846 19.0747 135.148 17.88C136.449 16.6853 137.665 16.088 138.796 16.088C140.182 16.088 140.876 16.7813 140.876 18.168C140.876 19 140.641 20.504 140.172 22.68C139.766 24.536 139.564 25.7627 139.564 26.36C139.564 27.2133 139.873 27.64 140.492 27.64C140.918 27.64 141.419 27.384 141.995 26.872C142.593 26.3387 143.382 25.4853 144.363 24.312C144.619 24.0133 144.908 23.864 145.228 23.864C145.505 23.864 145.718 23.992 145.868 24.248C146.038 24.504 146.124 24.856 146.124 25.304C146.124 26.1573 145.921 26.8187 145.516 27.288C144.598 28.4187 143.606 29.3467 142.54 30.072C141.494 30.7973 140.3 31.16 138.956 31.16C137.868 31.16 137.046 30.8507 136.492 30.232C135.937 29.592 135.66 28.6747 135.66 27.48C135.66 26.8827 135.809 25.816 136.107 24.28C136.385 22.936 136.523 22.008 136.523 21.496C136.523 21.1547 136.406 20.984 136.172 20.984C135.894 20.984 135.5 21.3467 134.988 22.072C134.476 22.776 133.964 23.7147 133.452 24.888C132.94 26.0613 132.524 27.2987 132.204 28.6C131.969 29.624 131.692 30.3067 131.372 30.648C131.073 30.9893 130.582 31.16 129.9 31.16C129.196 31.16 128.662 30.8293 128.299 30.168C127.958 29.4853 127.787 28.664 127.787 27.704C127.787 26.8933 127.894 25.72 128.107 24.184C128.278 22.8187 128.364 21.9227 128.364 21.496C128.364 21.1547 128.246 20.984 128.011 20.984C127.691 20.984 127.286 21.368 126.796 22.136C126.305 22.904 125.825 23.8853 125.355 25.08C124.907 26.2747 124.545 27.448 124.268 28.6C124.033 29.6027 123.756 30.2853 123.436 30.648C123.137 30.9893 122.657 31.16 121.995 31.16Z" stroke="white" stroke-width="2" mask="url(#path-1-outside-1_3_9)"/>
<path d="M145.808 31.16C144.997 31.16 144.421 30.7333 144.08 29.88C143.76 29.0267 143.6 27.6613 143.6 25.784C143.6 23.0107 143.995 20.376 144.784 17.88C144.976 17.2613 145.285 16.8133 145.712 16.536C146.16 16.2373 146.779 16.088 147.568 16.088C147.995 16.088 148.293 16.1413 148.464 16.248C148.635 16.3547 148.72 16.5573 148.72 16.856C148.72 17.1973 148.56 17.9653 148.24 19.16C148.027 20.0133 147.856 20.76 147.728 21.4C147.6 22.0187 147.493 22.7973 147.408 23.736C147.984 22.072 148.667 20.664 149.456 19.512C150.267 18.36 151.088 17.5067 151.92 16.952C152.773 16.376 153.573 16.088 154.32 16.088C155.067 16.088 155.589 16.2587 155.888 16.6C156.208 16.9413 156.368 17.464 156.368 18.168C156.368 18.8507 156.165 20.088 155.76 21.88C155.589 22.648 155.472 23.224 155.408 23.608C156.475 20.984 157.659 19.0747 158.96 17.88C160.261 16.6853 161.477 16.088 162.608 16.088C163.995 16.088 164.688 16.7813 164.688 18.168C164.688 19 164.453 20.504 163.984 22.68C163.579 24.536 163.376 25.7627 163.376 26.36C163.376 27.2133 163.685 27.64 164.304 27.64C164.731 27.64 165.232 27.384 165.808 26.872C166.405 26.3387 167.195 25.4853 168.176 24.312C168.432 24.0133 168.72 23.864 169.04 23.864C169.317 23.864 169.531 23.992 169.68 24.248C169.851 24.504 169.936 24.856 169.936 25.304C169.936 26.1573 169.733 26.8187 169.328 27.288C168.411 28.4187 167.419 29.3467 166.352 30.072C165.307 30.7973 164.112 31.16 162.768 31.16C161.68 31.16 160.859 30.8507 160.304 30.232C159.749 29.592 159.472 28.6747 159.472 27.48C159.472 26.8827 159.621 25.816 159.92 24.28C160.197 22.936 160.336 22.008 160.336 21.496C160.336 21.1547 160.219 20.984 159.984 20.984C159.707 20.984 159.312 21.3467 158.8 22.072C158.288 22.776 157.776 23.7147 157.264 24.888C156.752 26.0613 156.336 27.2987 156.016 28.6C155.781 29.624 155.504 30.3067 155.184 30.648C154.885 30.9893 154.395 31.16 153.712 31.16C153.008 31.16 152.475 30.8293 152.112 30.168C151.771 29.4853 151.6 28.664 151.6 27.704C151.6 26.8933 151.707 25.72 151.92 24.184C152.091 22.8187 152.176 21.9227 152.176 21.496C152.176 21.1547 152.059 20.984 151.824 20.984C151.504 20.984 151.099 21.368 150.608 22.136C150.117 22.904 149.637 23.8853 149.168 25.08C148.72 26.2747 148.357 27.448 148.08 28.6C147.845 29.6027 147.568 30.2853 147.248 30.648C146.949 30.9893 146.469 31.16 145.808 31.16Z" stroke="white" stroke-width="2" mask="url(#path-1-outside-1_3_9)"/>
<path d="M170.613 31.16C169.653 31.16 168.863 30.7227 168.245 29.848C167.647 28.952 167.348 27.8427 167.348 26.52C167.348 24.92 167.455 23.4587 167.669 22.136C167.882 20.792 168.234 19.3733 168.725 17.88C168.938 17.24 169.236 16.7813 169.62 16.504C170.004 16.2267 170.613 16.088 171.445 16.088C171.914 16.088 172.234 16.1627 172.404 16.312C172.596 16.4613 172.693 16.6853 172.693 16.984C172.693 17.1547 172.575 17.7307 172.34 18.712C172.127 19.5013 171.957 20.216 171.829 20.856C171.402 23.096 171.189 24.5893 171.189 25.336C171.189 25.784 171.242 26.104 171.348 26.296C171.455 26.4667 171.626 26.552 171.861 26.552C172.181 26.552 172.575 26.232 173.044 25.592C173.535 24.952 174.047 23.9813 174.581 22.68C175.135 21.3787 175.668 19.7787 176.18 17.88C176.351 17.24 176.607 16.7813 176.949 16.504C177.311 16.2267 177.845 16.088 178.549 16.088C179.039 16.088 179.38 16.152 179.572 16.28C179.764 16.3867 179.861 16.6 179.861 16.92C179.861 17.4533 179.594 18.9147 179.061 21.304C178.463 24.0347 178.165 25.72 178.165 26.36C178.165 26.7653 178.25 27.0853 178.421 27.32C178.591 27.5333 178.815 27.64 179.092 27.64C179.519 27.64 180.02 27.384 180.596 26.872C181.194 26.3387 181.983 25.4853 182.965 24.312C183.221 24.0133 183.509 23.864 183.829 23.864C184.106 23.864 184.319 23.992 184.469 24.248C184.639 24.504 184.725 24.856 184.725 25.304C184.725 26.1573 184.522 26.8187 184.117 27.288C183.199 28.4187 182.207 29.3467 181.141 30.072C180.095 30.7973 178.901 31.16 177.557 31.16C176.533 31.16 175.775 30.7653 175.285 29.976C174.815 29.1867 174.581 28.0773 174.581 26.648C174.218 28.0987 173.674 29.2187 172.949 30.008C172.223 30.776 171.445 31.16 170.613 31.16Z" stroke="white" stroke-width="2" mask="url(#path-1-outside-1_3_9)"/>
<path d="M184.402 31.16C183.591 31.16 183.015 30.7333 182.674 29.88C182.354 29.0267 182.194 27.6613 182.194 25.784C182.194 23.0107 182.588 20.376 183.378 17.88C183.57 17.2613 183.879 16.8133 184.306 16.536C184.754 16.2373 185.372 16.088 186.162 16.088C186.588 16.088 186.887 16.1413 187.058 16.248C187.228 16.3547 187.314 16.5573 187.314 16.856C187.314 17.1973 187.154 17.9653 186.834 19.16C186.62 20.0133 186.45 20.76 186.322 21.4C186.194 22.04 186.087 22.8293 186.002 23.768C186.706 21.9333 187.495 20.44 188.37 19.288C189.244 18.136 190.098 17.3147 190.93 16.824C191.783 16.3333 192.562 16.088 193.266 16.088C194.652 16.088 195.346 16.7813 195.346 18.168C195.346 19 195.111 20.504 194.642 22.68C194.236 24.536 194.034 25.7627 194.034 26.36C194.034 27.2133 194.343 27.64 194.962 27.64C195.388 27.64 195.89 27.384 196.466 26.872C197.063 26.3387 197.852 25.4853 198.834 24.312C199.09 24.0133 199.378 23.864 199.698 23.864C199.975 23.864 200.188 23.992 200.338 24.248C200.508 24.504 200.594 24.856 200.594 25.304C200.594 26.1573 200.391 26.8187 199.986 27.288C199.068 28.4187 198.076 29.3467 197.01 30.072C195.964 30.7973 194.77 31.16 193.426 31.16C192.338 31.16 191.516 30.8507 190.962 30.232C190.407 29.592 190.13 28.6747 190.13 27.48C190.13 26.8827 190.279 25.816 190.578 24.28C190.855 22.936 190.994 22.008 190.994 21.496C190.994 21.1547 190.876 20.984 190.642 20.984C190.364 20.984 189.97 21.3467 189.458 22.072C188.967 22.776 188.455 23.7147 187.922 24.888C187.41 26.0613 186.994 27.2987 186.674 28.6C186.439 29.6027 186.162 30.2853 185.842 30.648C185.543 30.9893 185.063 31.16 184.402 31.16Z" stroke="white" stroke-width="2" mask="url(#path-1-outside-1_3_9)"/>
<path d="M202.197 13.976C201.301 13.976 200.629 13.7733 200.181 13.368C199.733 12.9413 199.509 12.3547 199.509 11.608C199.509 10.8613 199.797 10.2427 200.373 9.752C200.97 9.24 201.706 8.984 202.581 8.984C203.37 8.984 204.01 9.176 204.501 9.56C204.991 9.944 205.237 10.488 205.237 11.192C205.237 12.0453 204.959 12.728 204.405 13.24C203.85 13.7307 203.114 13.976 202.197 13.976ZM201.941 31.16C200.554 31.16 199.541 30.6693 198.901 29.688C198.282 28.7067 197.973 27.4053 197.973 25.784C197.973 24.824 198.09 23.5973 198.325 22.104C198.581 20.5893 198.901 19.1813 199.285 17.88C199.477 17.1973 199.733 16.728 200.053 16.472C200.373 16.216 200.885 16.088 201.589 16.088C202.677 16.088 203.221 16.4507 203.221 17.176C203.221 17.7093 203.018 18.9467 202.613 20.888C202.101 23.2347 201.845 24.824 201.845 25.656C201.845 26.296 201.93 26.7867 202.101 27.128C202.271 27.4693 202.559 27.64 202.965 27.64C203.349 27.64 203.829 27.3733 204.405 26.84C204.981 26.3067 205.749 25.464 206.709 24.312C206.965 24.0133 207.253 23.864 207.573 23.864C207.85 23.864 208.063 23.992 208.213 24.248C208.383 24.504 208.469 24.856 208.469 25.304C208.469 26.1573 208.266 26.8187 207.861 27.288C205.749 29.8693 203.775 31.16 201.941 31.16Z" stroke="white" stroke-width="2" mask="url(#path-1-outside-1_3_9)"/>
<path d="M211.992 31.16C209.901 31.16 208.269 30.5733 207.096 29.4C205.944 28.2053 205.368 26.6373 205.368 24.696C205.368 22.968 205.709 21.4533 206.392 20.152C207.074 18.8507 207.96 17.848 209.048 17.144C210.136 16.44 211.277 16.088 212.472 16.088C213.645 16.088 214.552 16.44 215.192 17.144C215.853 17.8267 216.184 18.712 216.184 19.8C216.184 20.696 215.981 21.4533 215.576 22.072C215.192 22.6907 214.68 23 214.04 23C213.634 23 213.304 22.904 213.048 22.712C212.813 22.52 212.696 22.2533 212.696 21.912C212.696 21.7627 212.717 21.592 212.76 21.4C212.802 21.208 212.834 21.0693 212.856 20.984C212.962 20.664 213.016 20.3653 213.016 20.088C213.016 19.8107 212.941 19.5973 212.792 19.448C212.664 19.2987 212.472 19.224 212.216 19.224C211.725 19.224 211.266 19.448 210.84 19.896C210.413 20.3227 210.072 20.9093 209.816 21.656C209.56 22.4027 209.432 23.224 209.432 24.12C209.432 26.5947 210.509 27.832 212.664 27.832C213.538 27.832 214.477 27.544 215.48 26.968C216.504 26.3707 217.506 25.4853 218.488 24.312C218.744 24.0133 219.032 23.864 219.352 23.864C219.629 23.864 219.842 23.992 219.992 24.248C220.162 24.504 220.248 24.856 220.248 25.304C220.248 26.1147 220.045 26.776 219.64 27.288C218.637 28.5253 217.432 29.4853 216.024 30.168C214.637 30.8293 213.293 31.16 211.992 31.16Z" stroke="white" stroke-width="2" mask="url(#path-1-outside-1_3_9)"/>
<path d="M221.285 31.16C219.962 31.16 218.906 30.68 218.117 29.72C217.327 28.76 216.932 27.5013 216.932 25.944C216.932 24.2373 217.327 22.6267 218.117 21.112C218.906 19.576 219.951 18.3493 221.253 17.432C222.575 16.4933 223.973 16.024 225.445 16.024C225.914 16.024 226.223 16.12 226.372 16.312C226.543 16.4827 226.682 16.8027 226.788 17.272C227.236 17.1867 227.706 17.144 228.197 17.144C229.242 17.144 229.764 17.5173 229.764 18.264C229.764 18.712 229.604 19.7787 229.285 21.464C228.794 23.9173 228.549 25.624 228.549 26.584C228.549 26.904 228.623 27.16 228.773 27.352C228.943 27.544 229.157 27.64 229.413 27.64C229.818 27.64 230.309 27.384 230.885 26.872C231.461 26.3387 232.239 25.4853 233.221 24.312C233.477 24.0133 233.765 23.864 234.085 23.864C234.362 23.864 234.575 23.992 234.725 24.248C234.895 24.504 234.98 24.856 234.98 25.304C234.98 26.1573 234.778 26.8187 234.372 27.288C233.498 28.376 232.57 29.2933 231.589 30.04C230.607 30.7867 229.658 31.16 228.74 31.16C228.036 31.16 227.386 30.9253 226.788 30.456C226.212 29.9653 225.775 29.304 225.477 28.472C224.367 30.264 222.97 31.16 221.285 31.16ZM222.436 27.928C222.906 27.928 223.354 27.6507 223.781 27.096C224.207 26.5413 224.516 25.8053 224.708 24.888L225.893 19C224.997 19.0213 224.164 19.3627 223.396 20.024C222.65 20.664 222.053 21.5173 221.605 22.584C221.157 23.6507 220.932 24.7813 220.932 25.976C220.932 26.6373 221.06 27.128 221.316 27.448C221.594 27.768 221.967 27.928 222.436 27.928Z" stroke="white" stroke-width="2" mask="url(#path-1-outside-1_3_9)"/>
<path d="M246.652 23.864C246.929 23.864 247.142 23.992 247.292 24.248C247.462 24.504 247.548 24.856 247.548 25.304C247.548 26.1573 247.345 26.8187 246.94 27.288C246.022 28.4187 245.02 29.3467 243.932 30.072C242.844 30.7973 241.596 31.16 240.188 31.16C235.836 31.16 233.66 28.0987 233.66 21.976C233.66 21.0373 233.692 20.088 233.756 19.128H232.508C231.868 19.128 231.43 19.0107 231.196 18.776C230.982 18.5413 230.876 18.168 230.876 17.656C230.876 16.4613 231.356 15.864 232.316 15.864H234.14C234.502 13.5173 235.057 11.3733 235.804 9.432C236.55 7.49067 237.446 5.944 238.492 4.792C239.558 3.64 240.7 3.064 241.916 3.064C242.812 3.064 243.516 3.45867 244.028 4.248C244.54 5.03733 244.796 6.02933 244.796 7.224C244.796 10.5307 243.409 13.4107 240.636 15.864H244.22C244.561 15.864 244.806 15.9387 244.956 16.088C245.105 16.2373 245.18 16.5147 245.18 16.92C245.18 18.392 243.974 19.128 241.564 19.128H237.66C237.617 20.1947 237.596 21.0267 237.596 21.624C237.596 23.8427 237.852 25.4 238.364 26.296C238.897 27.192 239.729 27.64 240.86 27.64C241.777 27.64 242.588 27.3627 243.292 26.808C243.996 26.2533 244.828 25.4213 245.788 24.312C246.044 24.0133 246.332 23.864 246.652 23.864ZM241.052 6.136C240.732 6.136 240.369 6.54133 239.964 7.352C239.58 8.14133 239.206 9.25067 238.844 10.68C238.502 12.088 238.214 13.656 237.98 15.384C239.238 14.296 240.177 13.08 240.796 11.736C241.436 10.3707 241.756 9.13333 241.756 8.024C241.756 6.76533 241.521 6.136 241.052 6.136Z" stroke="white" stroke-width="2" mask="url(#path-1-outside-1_3_9)"/>
<path d="M256.398 24.824C256.676 24.824 256.889 24.952 257.038 25.208C257.209 25.464 257.294 25.816 257.294 26.264C257.294 27.032 257.113 27.6933 256.75 28.248C256.153 29.1653 255.364 29.88 254.382 30.392C253.422 30.904 252.27 31.16 250.926 31.16C248.878 31.16 247.289 30.552 246.158 29.336C245.028 28.0987 244.462 26.4347 244.462 24.344C244.462 22.872 244.772 21.5067 245.39 20.248C246.009 18.968 246.862 17.9547 247.95 17.208C249.06 16.4613 250.308 16.088 251.694 16.088C252.932 16.088 253.924 16.4613 254.67 17.208C255.417 17.9333 255.79 18.9253 255.79 20.184C255.79 21.656 255.257 22.9253 254.19 23.992C253.145 25.0373 251.353 25.8693 248.814 26.488C249.326 27.4693 250.19 27.96 251.406 27.96C252.281 27.96 252.996 27.7573 253.55 27.352C254.126 26.9467 254.788 26.264 255.534 25.304C255.79 24.984 256.078 24.824 256.398 24.824ZM251.15 19.224C250.361 19.224 249.689 19.6827 249.134 20.6C248.601 21.5173 248.334 22.6267 248.334 23.928V23.992C249.593 23.6933 250.585 23.2453 251.31 22.648C252.036 22.0507 252.398 21.3573 252.398 20.568C252.398 20.1627 252.281 19.8427 252.046 19.608C251.833 19.352 251.534 19.224 251.15 19.224Z" stroke="white" stroke-width="2" mask="url(#path-1-outside-1_3_9)"/>
<path d="M263.12 23.512C262.693 23.512 262.341 23.416 262.064 23.224C261.787 23.032 261.648 22.7333 261.648 22.328L261.68 22.072C262.043 19.6827 262.533 16.9627 263.152 13.912C263.771 10.8613 264.347 8.22667 264.88 6.008C265.221 4.64267 266.149 3.96 267.664 3.96C269.029 3.96 269.712 4.39733 269.712 5.272C269.712 5.464 269.68 5.67733 269.616 5.912C269.061 8.17333 268.325 10.9147 267.408 14.136C266.491 17.336 265.616 20.12 264.784 22.488C264.549 23.1707 263.995 23.512 263.12 23.512ZM261.904 31.16C260.965 31.16 260.251 30.904 259.76 30.392C259.291 29.88 259.056 29.208 259.056 28.376C259.056 27.416 259.323 26.648 259.856 26.072C260.411 25.496 261.179 25.208 262.16 25.208C263.099 25.208 263.803 25.4427 264.272 25.912C264.763 26.36 265.008 27.032 265.008 27.928C265.008 28.9093 264.731 29.6987 264.176 30.296C263.621 30.872 262.864 31.16 261.904 31.16Z" stroke="white" stroke-width="2" mask="url(#path-1-outside-1_3_9)"/>
</svg>
